<svg width="1550" height="39" viewBox="0 0 1550 39" fill="none" xmlns="http://www.w3.org/2000/svg">
<path d="M0 0V20.8406C10.0234 21.2575 20.0623 21.5434 30.0805 21.3253C45.3275 21.0151 60.5641 20.0313 75.8007 19.2897C85.5502 18.805 95.3153 18.4706 105.034 17.6612L160 17.7582C160 17.7582 189.747 10.5318 202.716 9.7951C224.622 8.54951 247.073 18.5385 269 17.6612C288.757 16.8761 307.992 5.17623 327.765 4.9339C337.535 4.81273 347.331 5.17623 357.091 5.71906C373.325 6.62539 376.782 11.2249 393 12.3638C404.367 13.1587 421.69 21.2041 433 22.2656C454.044 24.2382 481.852 15.9164 502.911 17.7582C522.963 19.5127 543.056 20.9037 563.145 22.2656C576.537 23.1767 589.949 23.7196 603.357 24.4853C616.274 25.2026 629.191 26.0266 642.107 26.6566C659.989 27.529 677.882 28.1639 695.758 29.109C706.691 29.6906 717.608 30.597 728.526 31.4791C736.632 32.1334 744.718 33.03 752.809 33.7376C764.94 34.799 777.093 35.9428 789.224 36.7619C801.955 37.6149 814.727 37.9687 827.458 38.846C833.89 39.2919 840.281 38.8751 845.841 36.1852C849.654 34.3386 853.022 33.1318 857.347 33.2772C863.227 33.4565 869.142 32.9379 875.032 32.5986C883.118 32.114 891.194 31.3191 899.285 31.0719C909.019 30.7811 918.769 30.9508 928.513 30.8635C930.146 30.8635 932.13 31.4548 933.416 29.1624L929.546 27.7084C935.348 25.6195 938.583 25.4934 944.318 26.7923C948.069 27.6405 951.815 28.2463 955.685 27.2285C958.214 26.5534 960.811 26.1262 963.435 25.9539C971.758 25.4692 980.092 25.2511 988.416 24.8343C993.438 24.5871 998.444 24.0055 1003.47 23.9231C1005.14 23.894 1007.6 22.1832 1008.67 25.1299C1008.74 25.3238 1009.83 25.4886 1010.14 25.2753C1014.79 21.999 1019.4 24.4756 1023.8 25.6582C1027.64 26.6954 1031.28 27.1898 1035.17 26.3804C1036.49 26.1041 1038.84 25.7988 1039.13 26.3077C1040.85 29.2981 1043.66 28.2173 1046.07 28.2463C1050.26 28.3142 1054.95 29.2157 1058.5 27.7617C1063.38 25.7697 1068.11 25.1106 1073.24 24.8779C1082.99 24.4417 1092.73 23.5887 1102.48 23.0265C1105.47 22.8569 1108.5 23.2543 1111.5 23.0846C1124.06 22.3867 1136.62 21.4562 1149.19 20.8455C1155.27 20.5498 1161.38 20.8116 1167.48 20.7098C1168.81 20.6856 1170.39 20.5062 1171.41 19.818C1174.62 17.637 1177.93 17.4189 1181.61 18.3979C1185.29 19.377 1189.03 20.6129 1192.82 20.8843C1200.89 21.4562 1208.84 23.4239 1217.1 22.503C1221.66 22.0184 1226.34 22.3576 1230.96 22.4255C1239.62 22.5564 1248.28 23.0459 1256.92 22.8617C1269.13 22.5951 1281.27 22.8181 1293.39 24.2672C1298 24.8198 1302.72 24.7519 1307.29 25.4741C1325.35 28.3914 1343.63 29.8508 1361.95 29.836C1363.98 29.836 1366.09 29.7827 1368.03 30.1753C1375.32 31.6293 1382.54 30.8005 1389.8 30.0008C1392.42 29.6863 1395.07 29.7287 1397.68 30.1268C1402.9 30.9744 1408.26 30.6909 1413.35 29.2981C1415.67 28.6151 1418.07 28.2494 1420.5 28.2124C1425.78 28.2814 1431.05 28.613 1436.29 29.206C1441.62 29.8457 1447.19 27.0783 1452.35 30.2577C1452.91 30.6018 1453.99 30.4176 1454.76 30.2286C1462.69 28.29 1470.64 28.1349 1478.78 29.2108C1482.91 29.7585 1487.23 29.1527 1491.47 29.2108C1498.55 29.3419 1505.62 28.5988 1512.5 27.0007C1519.06 25.4886 1526.13 25.9684 1532.98 25.5128C1534.59 25.4014 1536.18 25.0282 1537.79 24.8198C1541.86 24.3157 1545.93 23.831 1550 23.3658V0H0Z" fill="#00010f"/>
</svg>
